<svg xmlns="http://www.w3.org/2000/svg" xmlns:xlink="http://www.w3.org/1999/xlink" viewBox="0,0,256,256" width="120px" height="120px"><g fill="#35b0ca" fill-rule="nonzero" stroke="none" stroke-width="1" stroke-linecap="butt" stroke-linejoin="miter" stroke-miterlimit="10" stroke-dasharray="" stroke-dashoffset="0" font-family="none" font-weight="none" font-size="none" text-anchor="none" style="mix-blend-mode: normal"><g transform="scale(5.12,5.12)"><path d="M25,2c-12.683,0 -23,10.318 -23,23c0,12.682 10.317,23 23,23c0.553,0 1,-0.448 1,-1v-8c0,-0.552 -0.447,-1 -1,-1c-7.168,0 -13,-5.832 -13,-13c0,-7.168 5.832,-13 13,-13c0.553,0 1,-0.448 1,-1v-8c0,-0.552 -0.447,-1 -1,-1zM25,20c-0.553,0 -1,0.448 -1,1v9c0,0.552 0.447,1 1,1h10v10c0,0.552 0.447,1 1,1h9c0.553,0 1,-0.448 1,-1v-20c0,-0.552 -0.447,-1 -1,-1z"></path></g></g></svg>