<svg xmlns="http://www.w3.org/2000/svg"  viewBox="0 0 50 50" width="100px" height="100px"><path d="M 17.226562 18.085938 C 15.783563 18.085937 15.025391 19.051297 15.025391 19.904297 C 15.025391 20.204297 15.095813 21.263672 17.007812 21.263672 C 18.598813 21.263672 19.210938 20.246328 19.210938 19.486328 C 19.210938 18.975328 18.790563 18.085937 17.226562 18.085938 z M 2.9023438 18.537109 L 0 31.552734 L 3.5800781 31.552734 C 3.9870781 29.465734 4.5314062 27.263672 5.0664062 25.013672 L 7.5742188 31.552734 L 10.984375 31.552734 L 13.923828 18.542969 L 10.410156 18.542969 L 8.9238281 25.160156 L 6.4628906 18.537109 L 2.9023438 18.537109 z M 20.802734 18.542969 L 17.914062 31.552734 L 21.384766 31.552734 L 22.544922 26.603516 L 24.013672 31.552734 L 27.5625 31.552734 L 26.091797 26.330078 L 29.660156 21.990234 L 25.681641 21.990234 L 22.808594 25.460938 L 24.359375 18.542969 L 20.802734 18.542969 z M 34.566406 21.591797 C 29.186406 21.591797 28.402094 25.786734 28.246094 26.552734 C 27.854094 28.489734 28.291359 31.002969 30.818359 31.667969 C 32.485359 32.106969 35.093531 32.059453 36.769531 30.689453 C 38.301531 29.436453 39.058156 27.318219 39.035156 25.324219 C 39.010156 23.409219 37.389406 21.591797 34.566406 21.591797 z M 47.46875 21.746094 C 46.274141 21.8255 45.063203 22.478984 44.376953 23.427734 C 44.466953 23.036734 44.561922 22.579688 44.669922 22.054688 L 41.123047 22.054688 L 39.046875 31.552734 L 42.576172 31.552734 L 43.753906 26.164062 C 43.971906 25.174063 44.766656 24.748641 45.472656 24.931641 C 45.778656 25.013641 46.195641 25.244312 46.056641 26.070312 L 44.859375 31.552734 L 48.347656 31.552734 L 49.943359 24.236328 C 50.284359 22.623328 48.961672 21.965141 48.638672 21.869141 C 48.264672 21.757891 47.866953 21.719625 47.46875 21.746094 z M 14.845703 21.998047 L 12.716797 31.552734 L 16.212891 31.552734 L 18.341797 21.998047 L 14.845703 21.998047 z M 34.076172 24.298828 C 34.847172 24.291828 35.058234 24.748687 34.990234 25.179688 C 34.806234 26.374688 34.392234 27.889047 34.240234 28.373047 C 34.237234 28.379047 34.237328 28.386625 34.236328 28.390625 C 34.068328 28.919625 33.569375 29.226563 32.984375 29.226562 C 32.391375 29.226562 32.034938 28.854906 32.085938 28.378906 C 32.172938 27.576906 32.680219 25.549391 32.824219 25.150391 C 33.077219 24.453391 33.766172 24.300828 34.076172 24.298828 z"/></svg>